# xmcd CD database file
#
# Track frame offsets:
#	151
#	18550
#	35283
#	58859
#	80547
#	101780
#	118046
#	139429
#	160036
#	181609
#	199211
#	218657
#	241493
#	260681
#
# Disc length: 3708 seconds
#
# Revision: 0
# Processed by: cddbd v1.5.1PL0 Copyright (c) Steve Scherf et al.
# Submitted via: CDex 1.51
#
DISCID=c70e7a0e
DTITLE=The Latin Brothers - Con sabrosura
DYEAR=2002
DGENRE=Salsa
TTITLE0=Llanto de un latino
TTITLE1=Dime que paso
TTITLE2=Se engordo la negra
TTITLE3=Las calaveras
TTITLE4=Tu lo mataste
TTITLE5=Sobre las olas
TTITLE6=Amor desechable
TTITLE7=Bien llegao
TTITLE8=Yo la tuve
TTITLE9=El cantante y el locutor
TTITLE10=Eso es lo que quieres
TTITLE11=Solo contigo
TTITLE12=Amame con tu experiencia
TTITLE13=El hijo de guaguanco
EXTD=YEAR: 2002
EXTT0=
EXTT1=
EXTT2=
EXTT3=
EXTT4=
EXTT5=
EXTT6=
EXTT7=
EXTT8=
EXTT9=
EXTT10=
EXTT11=
EXTT12=
EXTT13=
PLAYORDER=
